<?xml version="1.0" encoding="UTF-8"?>
<svg width="40px" height="40px" viewBox="0 0 40 40" version="1.1" xmlns="http://www.w3.org/2000/svg" xmlns:xlink="http://www.w3.org/1999/xlink">
    <!-- Generator: Sketch 41 (35326) - http://www.bohemiancoding.com/sketch -->
    <title>Group</title>
    <desc>Created with Sketch.</desc>
    <defs></defs>
    <g id="Page-1" stroke="none" stroke-width="1" fill="none" fill-rule="evenodd">
        <g id="Desktop-HD" transform="translate(-807.000000, -542.000000)">
            <g id="Group-12" transform="translate(315.000000, 482.000000)">
                <g id="Group-9" transform="translate(0.000000, 56.000000)">
                    <g id="Group-6" transform="translate(427.000000, 0.000000)">
                        <g id="ic_settings_black_24px" transform="translate(61.000000, 0.000000)">
                            <g id="Group">
                                <polygon id="Shape" points="0 0 48 0 48 48 0 48"></polygon>
                                <path d="M38.86,25.96 C38.94,25.32 39,24.68 39,24 C39,23.32 38.94,22.68 38.86,22.04 L43.08,18.74 C43.46,18.44 43.56,17.9 43.32,17.46 L39.32,10.54 C39.08,10.1 38.54,9.94 38.1,10.1 L33.12,12.1 C32.08,11.3 30.96,10.64 29.74,10.14 L28.98,4.84 C28.92,4.36 28.5,4 28,4 L20,4 C19.5,4 19.08,4.36 19.02,4.84 L18.26,10.14 C17.04,10.64 15.92,11.32 14.88,12.1 L9.9,10.1 C9.44,9.92 8.92,10.1 8.68,10.54 L4.68,17.46 C4.42,17.9 4.54,18.44 4.92,18.74 L9.14,22.04 C9.06,22.68 9,23.34 9,24 C9,24.66 9.06,25.32 9.14,25.96 L4.92,29.26 C4.54,29.56 4.44,30.1 4.68,30.54 L8.68,37.46 C8.92,37.9 9.46,38.06 9.9,37.9 L14.88,35.9 C15.92,36.7 17.04,37.36 18.26,37.86 L19.02,43.16 C19.08,43.64 19.5,44 20,44 L28,44 C28.5,44 28.92,43.64 28.98,43.16 L29.74,37.86 C30.96,37.36 32.08,36.68 33.12,35.9 L38.1,37.9 C38.56,38.08 39.08,37.9 39.32,37.46 L43.32,30.54 C43.56,30.1 43.46,29.56 43.08,29.26 L38.86,25.96 L38.86,25.96 Z M24,31 C20.14,31 17,27.86 17,24 C17,20.14 20.14,17 24,17 C27.86,17 31,20.14 31,24 C31,27.86 27.86,31 24,31 Z" id="Shape" fill="#98B1C6"></path>
                            </g>
                        </g>
                    </g>
                </g>
            </g>
        </g>
    </g>
</svg>