<?xml version="1.0" encoding="UTF-8"?>
<svg width="34px" height="42px" viewBox="0 0 34 42" version="1.1" xmlns="http://www.w3.org/2000/svg" xmlns:xlink="http://www.w3.org/1999/xlink">
    <!-- Generator: Sketch 41 (35326) - http://www.bohemiancoding.com/sketch -->
    <title>Group 3</title>
    <desc>Created with Sketch.</desc>
    <defs></defs>
    <g id="Page-1" stroke="none" stroke-width="1" fill="none" fill-rule="evenodd">
        <g id="Desktop-HD" transform="translate(-383.000000, -541.000000)">
            <g id="Group-12" transform="translate(315.000000, 482.000000)">
                <g id="Group-9" transform="translate(0.000000, 56.000000)">
                    <g id="Group-4">
                        <g id="Group-3" transform="translate(61.000000, 0.000000)">
                            <rect id="Rectangle-5" x="0" y="0" width="48" height="48"></rect>
                            <g id="Group" transform="translate(7.000000, 3.000000)">
                                <path d="M1.88890515,9.88861243 C1.95026114,8.84556059 2.84951689,8 3.89939352,8 L30.1006065,8 C31.1496126,8 32.0494385,8.8404541 32.1110948,9.88861243 L33.8889052,40.1113876 C33.9502611,41.1544394 33.1595459,42 32.1113876,42 L1.88861243,42 C0.845560586,42 0.0494384766,41.1595459 0.111094849,40.1113876 L1.88890515,9.88861243 Z" id="Combined-Shape" fill="#98B1C6"></path>
                                <path d="M26.6005722,20.7418049 C26.6886291,20.3115061 26.4948595,20.0704054 26.0367709,20.0704054 L23.7291914,20.0704054 C23.2007018,20.0704054 23.0069322,20.2941811 22.8484002,20.6212545 C22.8484002,20.6212545 21.6007672,23.2189226 20.0827321,24.8558124 C19.5954149,25.3849871 19.3476391,25.544247 19.0786465,25.544247 C18.8616571,25.544247 18.7615824,25.3675171 18.7615824,24.8901725 L18.7615824,20.7073723 C18.7615824,20.122163 18.6911072,19.95 18.1979295,19.95 L14.4986509,19.95 C14.2167502,19.95 14.0405623,20.1101297 14.0405623,20.3286137 C14.0405623,20.8797528 14.9037718,21.0042176 14.9037718,22.4975052 L14.9037718,25.5786796 C14.9037718,26.1983939 14.8685342,26.4393497 14.5690519,26.4393497 C13.7763917,26.4393497 11.8915149,23.7713666 10.8346099,20.7418049 C10.6231844,20.122163 10.3941772,19.95 9.79521251,19.95 L7.48763303,19.95 C7.15291308,19.95 6.90625,20.1737032 6.90625,20.5007042 C6.90625,21.103166 7.62850917,23.8917719 10.4646524,27.6270933 C12.367111,30.1401659 14.8685342,31.5 17.1232944,31.5 C18.4973376,31.5 18.8320576,31.2762968 18.8320576,30.7081951 L18.8320576,28.7803318 C18.8320576,28.2983478 19.0258272,28.0918247 19.3076537,28.0918247 C19.6247177,28.0918247 20.1843647,28.191353 21.4920129,29.4516588 C23.0421698,30.8976107 23.1478826,31.5 23.9935104,31.5 L26.5829163,31.5 C26.8471611,31.5 27.09375,31.3795221 27.09375,30.9492233 C27.09375,30.3811216 26.3362532,29.3656135 25.1736356,28.1606174 C24.6980395,27.5409755 23.922961,26.869721 23.6762979,26.5599 C23.3240705,26.1983939 23.429709,25.9917258 23.6762979,25.6131122 C23.6762979,25.6131122 26.3362532,21.9467285 26.6005722,20.7418049 Z" id="Fill-4" fill="#FFFFFF"></path>
                                <path d="M25.5,8.4 C25.5,3.7608081 21.6944204,0 17,0 C12.3055796,0 8.5,3.7608081 8.5,8.4 L10.625,8.4 C10.625,4.92060608 13.4791847,2.1 17,2.1 C20.5208153,2.1 23.375,4.92060608 23.375,8.4 L25.5,8.4 Z" id="Combined-Shape" fill="#98B1C6"></path>
                            </g>
                        </g>
                    </g>
                </g>
            </g>
        </g>
    </g>
</svg>